<?xml version="1.0" ?><!DOCTYPE svg  PUBLIC '-//W3C//DTD SVG 1.1//EN'  'http://www.w3.org/Graphics/SVG/1.1/DTD/svg11.dtd'><svg enable-background="new 0 0 106 106" id="Layer_1" version="1.1" viewBox="0 0 106 106" xml:space="preserve" xmlns="http://www.w3.org/2000/svg" xmlns:xlink="http://www.w3.org/1999/xlink"><circle cx="53" cy="53" fill="#435772" r="50"/><line fill="none" stroke="#FFFFFF" stroke-miterlimit="10" stroke-width="2" x1="62" x2="76" y1="54" y2="54"/><line fill="none" stroke="#FFFFFF" stroke-miterlimit="10" stroke-width="2" x1="62" x2="76" y1="64" y2="64"/><line fill="none" stroke="#FFFFFF" stroke-miterlimit="10" stroke-width="2" x1="62" x2="76" y1="74" y2="74"/><line fill="none" stroke="#FFFFFF" stroke-miterlimit="10" stroke-width="2" x1="34" x2="48" y1="31" y2="31"/><line fill="none" stroke="#FFFFFF" stroke-miterlimit="10" stroke-width="2" x1="34" x2="48" y1="41" y2="41"/><line fill="none" stroke="#FFFFFF" stroke-miterlimit="10" stroke-width="2" x1="34" x2="48" y1="51" y2="51"/><path d="M78.4,83.8H59.3c-2.2,0-4-1.8-4-4V48.9  c0-2.2,1.8-4,4-4h19.1c2.2,0,4,1.8,4,4v30.9C82.4,82,80.6,83.8,78.4,83.8z" fill="none" stroke="#FFFFFF" stroke-miterlimit="10" stroke-width="2"/><path d="M54,39L54,39V25.9c0-2.2-1.4-3.9-3.6-3.9H31.3  c-2.2,0-4.3,1.7-4.3,3.9v30.9c0,2.2,2.1,4.2,4.3,4.2H50" fill="none" stroke="#FFFFFF" stroke-miterlimit="10" stroke-width="2"/></svg>